<svg xmlns="http://www.w3.org/2000/svg" xmlns:xlink="http://www.w3.org/1999/xlink" width="480" zoomAndPan="magnify" viewBox="0 0 360 133.500001" height="178" preserveAspectRatio="xMidYMid meet" version="1.0"><defs><g/><clipPath id="ddc4081535"><path d="M 14 94 L 93.175781 94 L 93.175781 110.621094 L 14 110.621094 Z M 14 94 " clip-rule="nonzero"/></clipPath><clipPath id="7b67d68865"><path d="M 21 22.449219 L 93.175781 22.449219 L 93.175781 101 L 21 101 Z M 21 22.449219 " clip-rule="nonzero"/></clipPath></defs><g clip-path="url(#ddc4081535)"><path fill="#f0f0f5" d="M 140.363281 94.996094 L 16.847656 94.996094 C 15.234375 94.996094 14.160156 96.074219 14.160156 97.691406 C 14.160156 104.960938 20.070312 110.621094 27.050781 110.621094 L 130.160156 110.621094 C 137.410156 110.621094 143.046875 104.695312 143.046875 97.691406 C 143.046875 96.34375 141.972656 94.996094 140.363281 94.996094 Z M 140.363281 94.996094 " fill-opacity="1" fill-rule="nonzero"/></g><path fill="#f0f0f5" d="M 86.929688 66.449219 L 79.949219 66.988281 L 83.171875 74.257812 L 80.484375 75.605469 L 77.261719 68.0625 L 72.160156 72.644531 L 72.160156 52.445312 Z M 86.929688 66.449219 " fill-opacity="1" fill-rule="nonzero"/><g clip-path="url(#7b67d68865)"><path fill="#f0f0f5" d="M 125.058594 22.546875 L 32.152344 22.546875 C 26.242188 22.546875 21.679688 27.128906 21.679688 33.050781 L 21.679688 89.878906 C 21.679688 95.808594 26.246094 100.382812 32.152344 100.382812 L 125.058594 100.382812 C 130.964844 100.382812 135.527344 95.804688 135.527344 89.878906 L 135.527344 33.050781 C 135.527344 27.125 130.964844 22.546875 125.058594 22.546875 Z M 125.058594 87.457031 C 125.058594 89.074219 123.984375 90.152344 122.371094 90.152344 L 34.835938 90.152344 C 33.226562 90.152344 32.152344 89.074219 32.152344 87.457031 L 32.152344 35.746094 C 32.152344 34.128906 33.226562 33.050781 34.835938 33.050781 L 122.371094 33.050781 C 123.984375 33.050781 125.058594 34.128906 125.058594 35.746094 Z M 125.058594 87.457031 " fill-opacity="1" fill-rule="nonzero"/></g><g fill="#f0f0f5" fill-opacity="1"><g transform="translate(129.553277, 76.121548)"><g><path d="M 36.515625 0 L 24.15625 0 L 17.1875 -13.359375 C 17.0625 -13.566406 16.738281 -14.148438 16.21875 -15.109375 C 15.695312 -16.078125 15.117188 -17 14.484375 -17.875 L 14.484375 0 L 3.203125 0 L 3.203125 -35.765625 L 14.484375 -35.765625 L 14.484375 -19.515625 C 15.203125 -20.304688 15.820312 -21.171875 16.34375 -22.109375 C 16.863281 -23.054688 17.164062 -23.613281 17.25 -23.78125 L 23.96875 -35.765625 L 35.890625 -35.765625 L 28.734375 -23.78125 C 28.609375 -23.613281 28.335938 -23.171875 27.921875 -22.453125 C 27.503906 -21.742188 27.050781 -21.085938 26.5625 -20.484375 C 26.082031 -19.878906 25.570312 -19.320312 25.03125 -18.8125 C 25.78125 -18.101562 26.394531 -17.40625 26.875 -16.71875 C 27.363281 -16.03125 27.921875 -15.117188 28.546875 -13.984375 Z M 36.515625 0 "/></g></g></g><g fill="#f0f0f5" fill-opacity="1"><g transform="translate(165.678933, 76.121548)"><g><path d="M 19.765625 0 L 18.75 -3.953125 C 16.832031 -0.816406 14.160156 0.75 10.734375 0.75 C 7.929688 0.75 5.640625 -0.03125 3.859375 -1.59375 C 2.078125 -3.164062 1.1875 -5.375 1.1875 -8.21875 C 1.1875 -9.976562 1.695312 -11.515625 2.71875 -12.828125 C 3.75 -14.148438 5.164062 -15.082031 6.96875 -15.625 C 9.3125 -16.289062 12.925781 -16.664062 17.8125 -16.75 C 17.8125 -19.507812 17.6875 -20.972656 17.4375 -21.140625 C 17.226562 -21.304688 16.5625 -21.390625 15.4375 -21.390625 C 14.71875 -21.390625 13.734375 -21.347656 12.484375 -21.265625 C 10.472656 -21.179688 7.753906 -20.953125 4.328125 -20.578125 C 3.992188 -22.835938 3.742188 -25.265625 3.578125 -27.859375 C 5.796875 -28.316406 8.113281 -28.703125 10.53125 -29.015625 C 12.957031 -29.328125 15.132812 -29.484375 17.0625 -29.484375 C 20.40625 -29.484375 22.910156 -28.925781 24.578125 -27.8125 C 26.253906 -26.707031 27.34375 -25.253906 27.84375 -23.453125 C 28.351562 -21.660156 28.585938 -19.382812 28.546875 -16.625 L 28.484375 -7.40625 L 28.671875 0 Z M 14.359375 -6.265625 C 15.453125 -6.265625 16.601562 -6.476562 17.8125 -6.90625 L 17.8125 -11.546875 L 17.3125 -11.546875 C 14.21875 -11.546875 12.503906 -11.378906 12.171875 -11.046875 C 11.960938 -10.835938 11.804688 -10.519531 11.703125 -10.09375 C 11.597656 -9.675781 11.546875 -9.28125 11.546875 -8.90625 C 11.546875 -7.90625 11.773438 -7.210938 12.234375 -6.828125 C 12.691406 -6.453125 13.398438 -6.265625 14.359375 -6.265625 Z M 14.359375 -6.265625 "/></g></g></g><g fill="#f0f0f5" fill-opacity="1"><g transform="translate(196.47355, 76.121548)"><g><path d="M 8.15625 -32.4375 C 6.726562 -32.4375 5.503906 -32.914062 4.484375 -33.875 C 3.460938 -34.832031 2.953125 -35.984375 2.953125 -37.328125 C 2.953125 -38.660156 3.460938 -39.804688 4.484375 -40.765625 C 5.503906 -41.734375 6.726562 -42.21875 8.15625 -42.21875 C 9.570312 -42.21875 10.78125 -41.734375 11.78125 -40.765625 C 12.789062 -39.804688 13.296875 -38.660156 13.296875 -37.328125 C 13.296875 -35.984375 12.789062 -34.832031 11.78125 -33.875 C 10.78125 -32.914062 9.570312 -32.4375 8.15625 -32.4375 Z M 2.390625 3.515625 C 2.597656 3.179688 2.703125 2.507812 2.703125 1.5 C 2.703125 0.5 2.703125 -0.0820312 2.703125 -0.25 L 2.703125 -28.859375 L 13.421875 -28.859375 L 13.421875 -3.890625 C 13.421875 -1.046875 13.128906 1.523438 12.546875 3.828125 C 11.960938 6.128906 11.101562 7.96875 9.96875 9.34375 C 9.34375 10.144531 8.316406 10.734375 6.890625 11.109375 C 5.472656 11.484375 3.863281 11.671875 2.0625 11.671875 C -0.0625 11.671875 -1.941406 11.460938 -3.578125 11.046875 C -3.785156 9.453125 -3.890625 7.96875 -3.890625 6.59375 C -3.890625 5.625 -3.867188 4.890625 -3.828125 4.390625 C -0.0234375 4.265625 2.046875 3.972656 2.390625 3.515625 Z M 2.390625 3.515625 "/></g></g></g><g fill="#f0f0f5" fill-opacity="1"><g transform="translate(212.654836, 76.121548)"><g><path d="M 33.25 0 L 21.578125 0 L 15.625 -11.734375 C 15.039062 -12.941406 14.265625 -13.710938 13.296875 -14.046875 L 13.296875 0 L 2.578125 0 L 2.578125 -37.640625 L 13.296875 -38.078125 L 13.296875 -16.6875 C 14.304688 -17.101562 15.164062 -17.960938 15.875 -19.265625 L 21.203125 -28.859375 L 32.9375 -28.921875 L 26.84375 -19.140625 C 25.882812 -17.585938 24.84375 -16.351562 23.71875 -15.4375 C 24.675781 -14.382812 25.757812 -12.796875 26.96875 -10.671875 Z M 33.25 0 "/></g></g></g><g fill="#f0f0f5" fill-opacity="1"><g transform="translate(245.581866, 76.121548)"><g><path d="M 19.765625 0 L 18.75 -3.953125 C 16.832031 -0.816406 14.160156 0.75 10.734375 0.75 C 7.929688 0.75 5.640625 -0.03125 3.859375 -1.59375 C 2.078125 -3.164062 1.1875 -5.375 1.1875 -8.21875 C 1.1875 -9.976562 1.695312 -11.515625 2.71875 -12.828125 C 3.75 -14.148438 5.164062 -15.082031 6.96875 -15.625 C 9.3125 -16.289062 12.925781 -16.664062 17.8125 -16.75 C 17.8125 -19.507812 17.6875 -20.972656 17.4375 -21.140625 C 17.226562 -21.304688 16.5625 -21.390625 15.4375 -21.390625 C 14.71875 -21.390625 13.734375 -21.347656 12.484375 -21.265625 C 10.472656 -21.179688 7.753906 -20.953125 4.328125 -20.578125 C 3.992188 -22.835938 3.742188 -25.265625 3.578125 -27.859375 C 5.796875 -28.316406 8.113281 -28.703125 10.53125 -29.015625 C 12.957031 -29.328125 15.132812 -29.484375 17.0625 -29.484375 C 20.40625 -29.484375 22.910156 -28.925781 24.578125 -27.8125 C 26.253906 -26.707031 27.34375 -25.253906 27.84375 -23.453125 C 28.351562 -21.660156 28.585938 -19.382812 28.546875 -16.625 L 28.484375 -7.40625 L 28.671875 0 Z M 14.359375 -6.265625 C 15.453125 -6.265625 16.601562 -6.476562 17.8125 -6.90625 L 17.8125 -11.546875 L 17.3125 -11.546875 C 14.21875 -11.546875 12.503906 -11.378906 12.171875 -11.046875 C 11.960938 -10.835938 11.804688 -10.519531 11.703125 -10.09375 C 11.597656 -9.675781 11.546875 -9.28125 11.546875 -8.90625 C 11.546875 -7.90625 11.773438 -7.210938 12.234375 -6.828125 C 12.691406 -6.453125 13.398438 -6.265625 14.359375 -6.265625 Z M 14.359375 -6.265625 "/></g></g></g><g fill="#f0f0f5" fill-opacity="1"><g transform="translate(276.376484, 76.121548)"><g><path d="M 47.671875 -26.84375 C 48.347656 -25.84375 48.6875 -21.957031 48.6875 -15.1875 L 48.6875 0 L 37.953125 0 L 37.953125 -17.5 C 37.953125 -19.050781 37.804688 -19.972656 37.515625 -20.265625 C 37.179688 -20.597656 36.46875 -20.765625 35.375 -20.765625 L 34.625 -20.703125 C 33.332031 -20.617188 32.097656 -20.328125 30.921875 -19.828125 C 30.960938 -18.941406 30.984375 -17.394531 30.984375 -15.1875 L 30.984375 0 L 20.265625 0 L 20.265625 -17.875 C 20.265625 -19.175781 20.117188 -19.972656 19.828125 -20.265625 C 19.492188 -20.597656 18.78125 -20.765625 17.6875 -20.765625 L 16.9375 -20.703125 C 15.769531 -20.660156 14.554688 -20.390625 13.296875 -19.890625 L 13.296875 0 L 2.578125 0 L 2.578125 -28.859375 L 11.296875 -28.859375 L 12.421875 -24.15625 C 13.796875 -25.988281 15.382812 -27.332031 17.1875 -28.1875 C 18.988281 -29.050781 20.804688 -29.484375 22.640625 -29.484375 C 24.191406 -29.484375 25.664062 -29.253906 27.0625 -28.796875 C 28.46875 -28.335938 29.441406 -27.6875 29.984375 -26.84375 C 30.234375 -26.46875 30.441406 -25.78125 30.609375 -24.78125 C 31.953125 -26.414062 33.476562 -27.609375 35.1875 -28.359375 C 36.90625 -29.109375 38.625 -29.484375 40.34375 -29.484375 C 41.882812 -29.484375 43.351562 -29.253906 44.75 -28.796875 C 46.15625 -28.335938 47.128906 -27.6875 47.671875 -26.84375 Z M 47.671875 -26.84375 "/></g></g></g><g fill="#559eff" fill-opacity="1"><g transform="translate(128.533186, 105.903248)"><g><path d="M 1.296875 0 L 1.296875 -13.3125 L 4.078125 -13.3125 L 4.078125 0 Z M 1.296875 0 "/></g></g></g><g fill="#559eff" fill-opacity="1"><g transform="translate(145.132629, 105.903248)"><g><path d="M 9.40625 0 L 3.59375 -10.25 C 3.707031 -9.257812 3.765625 -8.460938 3.765625 -7.859375 L 3.765625 0 L 1.296875 0 L 1.296875 -13.3125 L 4.484375 -13.3125 L 10.375 -2.984375 C 10.257812 -3.929688 10.203125 -4.796875 10.203125 -5.578125 L 10.203125 -13.3125 L 12.671875 -13.3125 L 12.671875 0 Z M 9.40625 0 "/></g></g></g><g fill="#559eff" fill-opacity="1"><g transform="translate(170.327978, 105.903248)"><g><path d="M 1.296875 0 L 1.296875 -13.3125 L 4.078125 -13.3125 L 4.078125 0 Z M 1.296875 0 "/></g></g></g><g fill="#559eff" fill-opacity="1"><g transform="translate(186.927421, 105.903248)"><g><path d="M 7.3125 -11.15625 L 7.3125 0 L 4.515625 0 L 4.515625 -11.15625 L 0.21875 -11.15625 L 0.21875 -13.3125 L 11.625 -13.3125 L 11.625 -11.15625 Z M 7.3125 -11.15625 "/></g></g></g><g fill="#559eff" fill-opacity="1"><g transform="translate(209.969071, 105.903248)"><g><path d="M 1.296875 0 L 1.296875 -13.3125 L 4.078125 -13.3125 L 4.078125 0 Z M 1.296875 0 "/></g></g></g><g fill="#559eff" fill-opacity="1"><g transform="translate(226.568514, 105.903248)"><g><path d="M 10.703125 0 L 9.53125 -3.40625 L 4.453125 -3.40625 L 3.265625 0 L 0.484375 0 L 5.34375 -13.3125 L 8.625 -13.3125 L 13.46875 0 Z M 6.984375 -11.265625 L 6.921875 -11.0625 C 6.859375 -10.832031 6.78125 -10.570312 6.6875 -10.28125 C 6.601562 -9.988281 6.066406 -8.394531 5.078125 -5.5 L 8.90625 -5.5 L 7.59375 -9.328125 L 7.1875 -10.609375 Z M 6.984375 -11.265625 "/></g></g></g><g fill="#559eff" fill-opacity="1"><g transform="translate(251.763864, 105.903248)"><g><path d="M 7.3125 -11.15625 L 7.3125 0 L 4.515625 0 L 4.515625 -11.15625 L 0.21875 -11.15625 L 0.21875 -13.3125 L 11.625 -13.3125 L 11.625 -11.15625 Z M 7.3125 -11.15625 "/></g></g></g><g fill="#559eff" fill-opacity="1"><g transform="translate(274.805513, 105.903248)"><g><path d="M 1.296875 0 L 1.296875 -13.3125 L 4.078125 -13.3125 L 4.078125 0 Z M 1.296875 0 "/></g></g></g><g fill="#559eff" fill-opacity="1"><g transform="translate(291.404956, 105.903248)"><g><path d="M 7.890625 0 L 5.0625 0 L 0.125 -13.3125 L 3.046875 -13.3125 L 5.78125 -4.765625 C 5.957031 -4.210938 6.191406 -3.375 6.484375 -2.25 L 6.6875 -3.0625 L 7.171875 -4.765625 L 9.890625 -13.3125 L 12.78125 -13.3125 Z M 7.890625 0 "/></g></g></g><g fill="#559eff" fill-opacity="1"><g transform="translate(315.532896, 105.903248)"><g><path d="M 1.296875 0 L 1.296875 -13.3125 L 11.765625 -13.3125 L 11.765625 -11.15625 L 4.078125 -11.15625 L 4.078125 -7.8125 L 11.1875 -7.8125 L 11.1875 -5.65625 L 4.078125 -5.65625 L 4.078125 -2.15625 L 12.15625 -2.15625 L 12.15625 0 Z M 1.296875 0 "/></g></g></g></svg>